<svg version="1.1" id="Layer_1" xmlns="http://www.w3.org/2000/svg" xmlns:xlink="http://www.w3.org/1999/xlink" x="0px" y="0px"
	 width="100%" viewBox="0 0 96 96" enable-background="new 0 0 96 96" xml:space="preserve">
<path fill="#000000" opacity="1.000000" stroke="none" 
	d="
M62.000000,97.000000 
	C41.707542,97.000000 21.415087,97.000000 1.061316,97.000000 
	C1.061316,65.105309 1.061316,33.210468 1.061316,1.000000 
	C21.019789,1.000000 41.041237,1.000000 61.705246,1.437013 
	C61.491512,18.284161 60.842339,14.500716 73.968864,14.996325 
	C74.135147,15.002604 74.373474,15.065955 74.457809,14.981903 
	C75.648766,13.794993 77.639343,12.705263 77.832870,11.361142 
	C78.321167,7.969713 77.997986,4.461446 78.000000,1.000000 
	C84.312515,1.000000 90.625038,1.000000 96.938675,1.000018 
	C96.939796,33.000046 96.939796,65.000053 96.939796,97.000000 
	C90.899315,97.000000 84.919029,97.000000 78.295471,96.562988 
	C78.508492,79.715912 79.157661,83.499260 66.031136,83.003677 
	C65.864845,82.997398 65.626526,82.934044 65.542175,83.018097 
	C64.351227,84.205009 62.360672,85.294746 62.167141,86.638870 
	C61.678833,90.030289 62.002010,93.538559 62.000000,97.000000 
M76.880959,37.468010 
	C70.581322,37.317162 64.276855,36.999893 57.986881,37.182259 
	C56.960331,37.212017 55.258533,39.381462 55.142139,40.676399 
	C54.770947,44.806061 54.976589,48.989826 55.004463,53.152390 
	C55.026482,56.440441 53.442215,58.045769 50.153675,58.001133 
	C48.488888,57.978531 46.823513,57.999817 45.158405,57.999878 
	C33.005474,58.000309 33.077133,57.999428 32.949608,46.029331 
	C32.917721,43.036507 32.262222,40.050323 31.927076,37.334511 
	C24.171257,37.334511 17.253046,37.334511 10.396415,37.334511 
	C10.396415,44.392708 10.396415,51.110329 10.396415,58.006504 
	C15.646828,58.006504 20.507139,58.111092 25.360865,57.977108 
	C30.219210,57.842999 31.962313,59.352764 31.995056,64.194801 
	C32.019829,67.857887 32.022087,71.521393 31.997381,75.184464 
	C31.975115,78.485954 33.603123,80.029068 36.878403,80.005783 
	C41.540478,79.972633 46.205933,79.896751 50.864197,80.034103 
	C53.816910,80.121162 55.153088,79.068214 55.034866,75.988594 
	C54.881680,71.998245 55.228352,67.980865 54.939606,64.005646 
	C54.613689,59.518654 57.013985,58.098007 60.839531,58.022888 
	C65.333649,57.934643 69.855042,58.255459 74.311539,57.835548 
	C75.630409,57.711273 77.766983,55.727470 77.820351,54.520260 
	C78.061279,49.069733 77.689270,43.592110 76.880959,37.468010 
M45.345421,17.000116 
	C42.457188,17.302349 37.428204,16.918514 37.071350,18.032007 
	C35.872318,21.773363 35.969616,26.093275 36.456730,30.083637 
	C36.562801,30.952560 40.329193,31.852047 42.434681,31.915894 
	C51.010437,32.175953 51.013977,32.058308 51.000042,23.343092 
	C50.999249,22.846933 50.946896,22.344196 51.007866,21.855669 
	C51.458321,18.246466 50.018986,16.503069 45.345421,17.000116 
z"/>
<path fill="#A08B67" opacity="1.000000" stroke="none" 
	d="
M77.533142,1.000000 
	C77.997986,4.461446 78.321167,7.969713 77.832870,11.361142 
	C77.639343,12.705263 75.648766,13.794993 74.457809,14.981903 
	C74.373474,15.065955 74.135147,15.002604 73.968864,14.996325 
	C60.842339,14.500716 61.491512,18.284161 62.173904,1.437013 
	C67.022095,1.000000 72.044182,1.000000 77.533142,1.000000 
z"/>
<path fill="#A08B67" opacity="1.000000" stroke="none" 
	d="
M62.466862,97.000000 
	C62.002010,93.538559 61.678833,90.030289 62.167141,86.638870 
	C62.360672,85.294746 64.351227,84.205009 65.542175,83.018097 
	C65.626526,82.934044 65.864845,82.997398 66.031136,83.003677 
	C79.157661,83.499260 78.508492,79.715912 77.826096,96.562988 
	C72.977905,97.000000 67.955818,97.000000 62.466862,97.000000 
z"/>
<path fill="#A08B67" opacity="1.000000" stroke="none" 
	d="
M77.209526,37.796127 
	C77.689270,43.592110 78.061279,49.069733 77.820351,54.520260 
	C77.766983,55.727470 75.630409,57.711273 74.311539,57.835548 
	C69.855042,58.255459 65.333649,57.934643 60.839531,58.022888 
	C57.013985,58.098007 54.613689,59.518654 54.939606,64.005646 
	C55.228352,67.980865 54.881680,71.998245 55.034866,75.988594 
	C55.153088,79.068214 53.816910,80.121162 50.864197,80.034103 
	C46.205933,79.896751 41.540478,79.972633 36.878403,80.005783 
	C33.603123,80.029068 31.975115,78.485954 31.997381,75.184464 
	C32.022087,71.521393 32.019829,67.857887 31.995056,64.194801 
	C31.962313,59.352764 30.219210,57.842999 25.360865,57.977108 
	C20.507139,58.111092 15.646828,58.006504 10.396415,58.006504 
	C10.396415,51.110329 10.396415,44.392708 10.396415,37.334511 
	C17.253046,37.334511 24.171257,37.334511 31.927076,37.334511 
	C32.262222,40.050323 32.917721,43.036507 32.949608,46.029331 
	C33.077133,57.999428 33.005474,58.000309 45.158405,57.999878 
	C46.823513,57.999817 48.488888,57.978531 50.153675,58.001133 
	C53.442215,58.045769 55.026482,56.440441 55.004463,53.152390 
	C54.976589,48.989826 54.770947,44.806061 55.142139,40.676399 
	C55.258533,39.381462 56.960331,37.212017 57.986881,37.182259 
	C64.276855,36.999893 70.581322,37.317162 77.209526,37.796127 
M49.032700,75.910225 
	C49.948044,71.507492 50.863388,67.104767 51.922005,62.012909 
	C46.713017,62.012909 42.896454,61.742683 39.160572,62.172955 
	C37.997334,62.306927 36.164116,64.321518 36.144012,65.500862 
	C35.925819,78.299110 34.996201,75.778648 45.616970,75.996742 
	C46.448479,76.013817 47.280861,75.988571 49.032700,75.910225 
z"/>
<path fill="#A08B67" opacity="1.000000" stroke="none" 
	d="
M45.808262,17.000364 
	C50.018986,16.503069 51.458321,18.246466 51.007866,21.855669 
	C50.946896,22.344196 50.999249,22.846933 51.000042,23.343092 
	C51.013977,32.058308 51.010437,32.175953 42.434681,31.915894 
	C40.329193,31.852047 36.562801,30.952560 36.456730,30.083637 
	C35.969616,26.093275 35.872318,21.773363 37.071350,18.032007 
	C37.428204,16.918514 42.457188,17.302349 45.808262,17.000364 
z"/>
<path fill="#000000" opacity="1.000000" stroke="none" 
	d="
M48.572769,75.946609 
	C47.280861,75.988571 46.448479,76.013817 45.616970,75.996742 
	C34.996201,75.778648 35.925819,78.299110 36.144012,65.500862 
	C36.164116,64.321518 37.997334,62.306927 39.160572,62.172955 
	C42.896454,61.742683 46.713017,62.012909 51.922005,62.012909 
	C50.863388,67.104767 49.948044,71.507492 48.572769,75.946609 
z"/>
</svg>